<?xml version="1.0" standalone="no"?>
<!DOCTYPE svg PUBLIC "-//W3C//DTD SVG 20010904//EN"
 "http://www.w3.org/TR/2001/REC-SVG-20010904/DTD/svg10.dtd">
<svg version="1.0" xmlns="http://www.w3.org/2000/svg"
 width="1350.000000pt" height="843.000000pt" viewBox="0 0 1350.000000 843.000000"
 preserveAspectRatio="xMidYMid meet">
<metadata>
Created by potrace 1.10, written by Peter Selinger 2001-2011
</metadata>
<g transform="translate(0.000000,843.000000) scale(0.100000,-0.100000)"
fill="#000000" stroke="none">
<path d="M0 4215 l0 -4215 6750 0 6750 0 0 4215 0 4215 -6750 0 -6750 0 0
-4215z m6740 2872 c6 -144 14 -296 19 -337 5 -41 10 -128 10 -192 1 -65 5
-148 11 -185 5 -38 15 -131 20 -208 24 -315 39 -481 45 -496 3 -8 10 -62 14
-120 5 -57 14 -138 20 -179 7 -41 19 -124 27 -185 23 -170 74 -429 88 -442 9
-9 84 -22 199 -34 100 -10 120 -10 131 2 16 17 46 109 46 139 0 12 5 30 11 41
11 21 32 137 49 269 6 41 14 86 19 100 5 14 12 57 15 97 3 39 11 84 16 98 6
14 10 48 10 74 0 27 5 73 11 102 12 63 36 312 49 514 5 77 14 163 19 190 6 28
13 113 15 190 5 126 27 300 41 313 3 3 5 -19 6 -49 5 -272 55 -965 84 -1179 9
-58 15 -124 15 -148 0 -24 4 -62 10 -85 5 -23 14 -82 20 -132 9 -86 26 -195
50 -335 12 -68 32 -152 56 -234 8 -26 14 -56 14 -65 0 -37 48 -63 242 -128 77
-26 81 -20 193 328 8 26 15 55 15 64 0 10 6 41 14 69 14 49 47 232 66 361 5
33 14 94 21 135 12 78 19 133 39 335 20 204 21 211 31 193 9 -16 22 -180 34
-418 8 -153 34 -553 46 -715 10 -128 21 -309 36 -603 l5 -112 -58 -26 c-33
-14 -66 -29 -74 -34 -8 -5 -42 -23 -75 -39 -71 -36 -124 -66 -185 -105 -63
-41 -276 -202 -330 -250 -107 -95 -282 -280 -371 -391 -88 -110 -249 -343
-249 -360 0 -4 -13 -26 -29 -50 -31 -45 -166 -319 -195 -395 -10 -25 -24 -58
-32 -73 -8 -16 -14 -35 -14 -44 0 -8 -6 -27 -14 -41 -17 -31 -67 -179 -91
-267 -9 -33 -22 -82 -30 -110 -32 -116 -45 -176 -65 -285 -48 -261 -70 -416
-70 -485 0 -65 -15 -184 -24 -193 -14 -13 -20 17 -33 165 -18 211 -48 407 -79
519 -8 28 -14 61 -14 72 0 49 -94 379 -152 537 -132 357 -350 752 -543 984
-296 357 -594 606 -930 776 -27 14 -57 30 -65 35 -8 5 -41 19 -72 31 -32 12
-58 29 -61 39 -2 10 2 80 9 156 8 77 20 227 29 334 8 107 20 254 25 325 6 72
15 202 20 290 5 88 14 194 19 235 6 41 13 120 16 175 8 152 27 338 36 355 8
17 11 -4 34 -260 19 -213 39 -388 60 -510 8 -47 16 -101 19 -120 4 -34 18
-109 49 -255 23 -107 50 -200 83 -280 6 -16 15 -40 18 -51 4 -12 14 -29 24
-37 20 -18 22 -18 187 40 101 36 104 38 122 82 25 59 68 225 83 322 5 31 14
68 20 83 5 15 10 41 10 58 0 16 7 57 14 91 21 88 49 304 76 582 5 55 14 122
20 148 5 26 10 83 11 125 0 42 5 100 10 127 5 28 14 109 18 180 24 334 33 441
38 460 12 35 21 -30 22 -160 1 -66 6 -160 12 -210 5 -49 14 -157 19 -240 5
-82 14 -181 19 -220 6 -38 11 -97 11 -130 0 -33 5 -76 10 -96 5 -19 14 -91 20
-160 17 -214 70 -547 106 -673 8 -26 14 -58 14 -70 0 -22 31 -110 43 -122 10
-10 320 27 333 40 14 14 44 107 44 137 0 13 6 48 14 78 36 145 84 507 106 801
5 69 14 138 19 154 6 15 11 64 11 109 0 45 6 141 14 212 8 72 17 193 21 270 3
77 11 183 16 235 6 52 14 212 18 355 4 143 11 267 15 274 20 31 27 -30 36
-282z"/>
<path d="M6716 6779 c-14 -70 -28 -220 -32 -344 -3 -77 -9 -162 -14 -190 -5
-27 -14 -124 -20 -214 -6 -90 -13 -167 -15 -172 -3 -4 -10 -65 -15 -136 -5
-70 -14 -164 -19 -208 -6 -44 -15 -123 -21 -175 -23 -192 -28 -226 -40 -285
-6 -33 -18 -94 -26 -135 -24 -121 -45 -199 -58 -208 -9 -9 -111 -23 -327 -48
-42 -4 -58 -2 -67 9 -13 16 -59 195 -87 337 -9 47 -23 117 -31 155 -8 39 -14
93 -14 120 0 28 -5 66 -10 85 -6 19 -17 105 -26 190 -8 85 -23 220 -31 300 -9
80 -18 215 -20 300 -4 154 -16 213 -27 129 -3 -24 -12 -94 -21 -156 -8 -61
-15 -139 -15 -173 0 -34 -5 -80 -10 -103 -6 -23 -17 -116 -25 -207 -9 -91 -22
-210 -30 -265 -9 -55 -19 -131 -24 -170 -5 -38 -14 -83 -20 -98 -6 -16 -11
-43 -11 -60 0 -31 -4 -52 -50 -252 -38 -165 -68 -256 -89 -269 -29 -18 -271
-99 -299 -100 -35 -1 -49 16 -85 104 -51 121 -118 400 -137 570 -4 36 -12 81
-19 100 -6 19 -11 52 -11 72 0 21 -7 70 -15 110 -8 40 -18 114 -22 163 l-7 90
-8 -70 c-27 -236 -56 -591 -68 -830 -6 -126 -12 -202 -39 -485 -4 -47 -4 -93
1 -102 5 -10 61 -44 126 -76 64 -32 149 -77 187 -100 39 -24 79 -48 90 -55 28
-17 236 -171 265 -197 240 -208 356 -331 510 -540 149 -201 205 -293 313 -506
98 -194 183 -400 233 -569 8 -27 22 -72 30 -100 8 -27 19 -66 23 -85 4 -19 12
-44 18 -55 6 -11 13 -38 16 -60 3 -22 17 -96 31 -164 15 -68 26 -135 26 -147
0 -13 5 -35 10 -50 10 -25 12 -26 26 -12 9 9 20 45 24 84 11 89 56 291 115
509 73 271 232 641 378 885 53 87 195 301 206 310 4 3 31 37 61 75 30 39 75
93 101 120 25 28 65 72 89 98 87 96 448 397 477 397 4 0 36 19 73 42 92 60 93
61 215 121 61 30 116 61 122 69 9 10 9 42 3 118 -12 139 -29 415 -41 675 -5
116 -13 234 -19 264 -5 30 -10 127 -11 215 -1 193 -11 236 -27 115 -20 -150
-64 -422 -85 -524 -57 -276 -124 -479 -186 -563 -27 -37 -26 -37 -136 7 -38
16 -96 36 -127 46 -32 10 -65 26 -74 36 -17 19 -38 83 -55 169 -5 25 -13 56
-18 70 -5 14 -16 70 -26 125 -9 55 -21 127 -27 160 -14 78 -36 263 -48 393 -5
57 -13 108 -17 115 -4 6 -10 63 -14 127 -4 63 -12 158 -18 210 -12 111 -20
237 -21 333 0 51 -3 67 -14 67 -8 0 -17 -3 -20 -8 -2 -4 -7 -69 -11 -144 -3
-75 -12 -185 -20 -245 -8 -59 -15 -133 -15 -163 0 -30 -5 -75 -11 -100 -6 -25
-15 -81 -19 -125 -12 -107 -26 -201 -76 -510 -8 -49 -20 -103 -26 -120 -6 -16
-14 -50 -18 -75 -4 -25 -12 -56 -18 -70 -6 -14 -13 -37 -16 -52 -9 -40 -34
-42 -208 -22 -182 20 -196 25 -203 61 -3 15 -12 51 -20 78 -19 71 -59 318 -76
470 -5 50 -14 106 -19 125 -6 19 -10 53 -10 75 0 22 -7 89 -15 150 -8 60 -21
191 -30 290 -8 99 -19 236 -25 305 -6 69 -15 223 -20 344 -8 210 -14 255 -24
205z m20 -996 c4 -93 6 -179 5 -193 -1 -14 5 -42 13 -62 9 -21 16 -66 16 -100
0 -35 5 -80 11 -100 5 -21 14 -75 19 -120 13 -118 26 -192 39 -216 6 -11 11
-36 11 -56 0 -19 5 -47 11 -63 6 -15 17 -53 24 -83 25 -105 33 -132 44 -143 5
-5 56 -13 113 -18 57 -4 141 -13 188 -19 47 -6 103 -12 125 -13 l40 -2 18 60
c44 143 61 191 73 210 9 12 12 32 8 51 -3 17 1 60 10 95 19 81 56 299 56 334
0 29 36 105 49 105 15 0 37 -95 50 -210 7 -58 16 -123 21 -145 5 -22 12 -60
16 -85 5 -40 48 -222 88 -372 8 -31 19 -66 25 -77 6 -11 11 -29 11 -40 0 -20
33 -41 95 -60 17 -5 55 -19 85 -31 30 -12 66 -25 80 -30 14 -5 43 -16 65 -24
61 -23 72 -20 102 27 34 54 83 153 83 167 0 7 6 26 13 43 29 67 69 209 102
361 21 95 35 86 35 -24 0 -41 5 -106 10 -143 6 -38 14 -193 20 -345 7 -215 7
-279 -3 -288 -7 -6 -37 -21 -67 -34 -30 -12 -84 -39 -120 -60 -36 -21 -86 -49
-112 -64 -75 -42 -289 -201 -402 -299 -74 -64 -254 -243 -281 -279 -92 -123
-152 -189 -174 -194 -56 -12 -151 -58 -151 -72 0 -11 7 -13 28 -8 81 18 92 19
92 3 0 -8 -16 -39 -36 -68 -20 -30 -47 -72 -60 -94 -13 -22 -35 -53 -49 -69
-14 -16 -25 -35 -25 -43 0 -7 -4 -21 -9 -31 -6 -9 -16 -30 -24 -47 -8 -16 -35
-73 -61 -125 -26 -52 -53 -108 -61 -125 -22 -50 -57 -129 -66 -150 -14 -33
-95 -275 -114 -340 -9 -33 -23 -78 -30 -100 -15 -48 -42 -163 -51 -223 -10
-62 -35 -53 -51 18 -7 30 -19 82 -28 115 -9 33 -20 78 -25 100 -5 22 -20 67
-33 100 -13 33 -34 94 -46 135 -12 41 -26 84 -31 95 -5 11 -25 61 -46 110 -20
50 -52 124 -72 165 -19 41 -45 98 -57 125 -17 42 -50 103 -159 300 -20 35 -84
129 -118 172 -18 23 -63 80 -99 126 -82 104 -103 129 -156 188 -24 25 -43 53
-43 61 0 8 -11 20 -25 26 -14 6 -25 16 -25 22 0 5 11 10 25 10 15 0 25 6 25
15 0 16 69 55 98 55 10 0 26 8 34 18 21 25 68 112 68 127 0 38 -71 10 -94 -36
-9 -18 -20 -24 -46 -24 -33 0 -36 -3 -50 -47 -8 -26 -17 -49 -20 -51 -3 -2
-25 -7 -49 -10 -40 -5 -46 -2 -87 35 -24 22 -44 47 -44 54 0 16 16 19 25 4 3
-5 15 -10 26 -10 23 0 25 27 3 58 -8 12 -14 35 -12 50 2 19 -2 27 -12 27 -11
0 -14 -9 -12 -31 2 -26 -3 -36 -28 -54 -30 -21 -32 -21 -67 -5 -20 10 -45 26
-56 36 -48 44 -315 214 -432 275 -71 37 -135 72 -142 78 -8 8 -8 59 2 211 8
110 19 232 24 270 13 89 20 167 26 279 3 49 7 91 10 94 12 12 19 -12 24 -82 4
-40 11 -80 18 -87 6 -8 14 -30 18 -49 17 -88 89 -296 125 -365 53 -100 65
-107 123 -81 71 32 125 53 182 70 147 46 148 46 173 117 36 96 67 211 107 394
10 44 27 116 38 159 10 44 21 107 23 140 11 200 34 346 53 346 5 0 11 -43 15
-95 4 -53 11 -108 16 -123 5 -15 11 -66 13 -114 3 -47 8 -92 13 -99 8 -13 25
-95 45 -219 6 -36 17 -85 25 -110 8 -25 14 -57 14 -72 0 -15 4 -29 8 -32 5 -3
14 -30 21 -60 18 -79 22 -81 149 -66 59 6 163 17 231 24 107 9 125 14 137 32
19 27 39 104 64 239 12 61 26 133 31 160 5 28 16 84 23 125 7 41 18 85 24 97
7 12 12 59 12 105 0 60 4 90 16 106 9 13 14 33 11 44 -11 41 19 408 33 408 4
0 11 -75 16 -167z m874 -207 c0 -14 -4 -28 -10 -31 -6 -4 -10 7 -10 24 0 17 5
31 10 31 6 0 10 -11 10 -24z"/>
<path d="M6518 4074 c-37 -20 -35 -34 5 -34 47 0 62 12 40 32 -16 15 -21 15
-45 2z"/>
<path d="M7792 4079 c2 -6 8 -10 13 -10 5 0 11 4 13 10 2 6 -4 11 -13 11 -9 0
-15 -5 -13 -11z"/>
<path d="M5553 3985 c-9 -24 0 -25 27 -5 l25 20 -23 0 c-12 0 -25 -7 -29 -15z"/>
<path d="M6440 3985 c0 -8 5 -15 10 -15 6 0 10 7 10 15 0 8 -4 15 -10 15 -5 0
-10 -7 -10 -15z"/>
<path d="M6145 3890 c-11 -5 -34 -9 -51 -9 -18 -1 -42 -10 -55 -21 -21 -17
-22 -21 -9 -30 21 -14 61 -12 90 5 14 8 37 19 53 26 15 6 27 17 27 25 0 15
-24 17 -55 4z"/>
<path d="M6930 3060 c0 -11 -29 -25 -72 -34 -32 -7 -37 -32 -8 -41 24 -8 60
11 60 30 0 8 7 15 15 15 8 0 15 9 15 20 0 11 -2 20 -5 20 -3 0 -5 -5 -5 -10z"/>
</g>
</svg>
